<svg width="27" height="24" viewBox="0 0 27 24" fill="none" xmlns="http://www.w3.org/2000/svg">
<path d="M25.9871 23.9998H20.5553C20.3193 24.0041 20.0873 23.9381 19.889 23.8102C19.6906 23.6823 19.5347 23.4983 19.4412 23.2816L13.5443 9.49365C13.5289 9.43998 13.4966 9.39269 13.4523 9.35879C13.4079 9.3249 13.3538 9.3062 13.2979 9.30547C13.2421 9.30475 13.1875 9.32203 13.1423 9.35475C13.097 9.38748 13.0635 9.43392 13.0467 9.48717L9.37179 18.2415C9.35185 18.2888 9.34393 18.3404 9.34873 18.3915C9.35354 18.4427 9.37093 18.4919 9.39935 18.5347C9.42777 18.5775 9.46634 18.6126 9.51162 18.6369C9.5569 18.6612 9.60748 18.6739 9.65887 18.6739H13.6983C13.8207 18.6739 13.9404 18.7099 14.0424 18.7775C14.1444 18.8451 14.2243 18.9412 14.272 19.0539L16.0406 22.9896C16.0874 23.1 16.1062 23.2203 16.0952 23.3398C16.0843 23.4593 16.0439 23.5741 15.9777 23.6742C15.9115 23.7742 15.8215 23.8563 15.7159 23.9132C15.6102 23.97 15.4921 23.9997 15.3722 23.9998H0.666439C0.555832 23.9991 0.447106 23.9711 0.349952 23.9183C0.252797 23.8654 0.170234 23.7893 0.109621 23.6968C0.0490088 23.6043 0.0122304 23.4982 0.00256478 23.388C-0.00710086 23.2778 0.0106463 23.1669 0.0542246 23.0653L9.40819 0.789699C9.50379 0.553937 9.66825 0.352476 9.8801 0.211618C10.092 0.0707598 10.3414 -0.00295032 10.5957 0.000110756H15.9909C16.2453 -0.00325878 16.4949 0.0703259 16.7068 0.211222C16.9187 0.352118 17.0832 0.553752 17.1785 0.789699L26.5972 23.0653C26.6408 23.1668 26.6586 23.2775 26.6491 23.3875C26.6395 23.4975 26.603 23.6035 26.5426 23.696C26.4822 23.7885 26.3999 23.8646 26.303 23.9176C26.2061 23.9706 26.0976 23.9989 25.9871 23.9998Z" fill="black"/>
</svg>
