<svg width="24" height="24" viewBox="0 0 24 24" fill="none" xmlns="http://www.w3.org/2000/svg">
<path d="M4.24286 0H19.7571C22.1143 0 24 1.88571 24 4.24286V18.9C24 21.2571 22.1143 23.1429 19.7571 23.1429H4.24286C1.88571 23.1429 0 21.2571 0 18.9V4.24286C0 1.88571 1.88571 0 4.24286 0Z" fill="#B30B00"/>
<path d="M19.285 13.3714C18.1707 12.2142 15.1279 12.6856 14.3993 12.7714C13.3279 11.7428 12.5993 10.4999 12.3421 10.0714C12.7279 8.91422 12.985 7.75707 13.0279 6.51422C13.0279 5.44279 12.5993 4.28564 11.3993 4.28564C10.9707 4.28564 10.585 4.54279 10.3707 4.88564C9.85643 5.78564 10.0707 7.58565 10.885 9.4285C10.4136 10.7571 9.985 12.0428 8.785 14.3142C7.54214 14.8285 4.92785 16.0285 4.71357 17.3142C4.62785 17.6999 4.75643 18.0856 5.05643 18.3856C5.35643 18.6428 5.74214 18.7714 6.12785 18.7714C7.71357 18.7714 9.25643 16.5856 10.3279 14.7428C11.2279 14.4428 12.6421 14.0142 14.0564 13.7571C15.7279 15.2142 17.185 15.4285 17.9564 15.4285C18.985 15.4285 19.3707 14.9999 19.4993 14.6142C19.7136 14.1856 19.585 13.7142 19.285 13.3714ZM18.2136 14.0999C18.1707 14.3999 17.785 14.6999 17.0993 14.5285C16.285 14.3142 15.5564 13.9285 14.9136 13.4142C15.4707 13.3285 16.7136 13.1999 17.6136 13.3714C17.9564 13.4571 18.2993 13.6714 18.2136 14.0999ZM11.0564 5.27136C11.1421 5.14279 11.2707 5.05707 11.3993 5.05707C11.785 5.05707 11.8707 5.5285 11.8707 5.91422C11.8279 6.81422 11.6564 7.71422 11.3564 8.57136C10.7136 6.85707 10.8421 5.65707 11.0564 5.27136ZM10.9707 13.5856C11.3136 12.8999 11.785 11.6999 11.9564 11.1856C12.3421 11.8285 12.985 12.5999 13.3279 12.9428C13.3279 12.9856 11.9993 13.2428 10.9707 13.5856ZM8.44214 15.2999C7.45643 16.9285 6.42785 17.9571 5.87071 17.9571C5.785 17.9571 5.69928 17.9142 5.61357 17.8714C5.485 17.7856 5.44214 17.6571 5.485 17.4856C5.61357 16.8856 6.72785 16.0714 8.44214 15.2999Z" fill="white"/>
</svg>
