<svg width="24" height="24" viewBox="0 0 24 24" fill="none" xmlns="http://www.w3.org/2000/svg">
<path d="M19.7512 0H4.24879C1.90225 0 0 1.90225 0 4.24879V18.8941C0 21.2406 1.90225 23.1429 4.24879 23.1429H19.7512C22.0978 23.1429 24 21.2406 24 18.8941V4.24879C24 1.90225 22.0978 0 19.7512 0Z" fill="#000B1D"/>
<path d="M18.6072 17.5713H15.8121C15.6907 17.5735 15.5713 17.5394 15.4693 17.4731C15.3672 17.4069 15.287 17.3116 15.2389 17.1994L12.2045 10.0592C12.1965 10.0314 12.1799 10.0069 12.1571 9.98934C12.1343 9.97179 12.1064 9.96211 12.0777 9.96173C12.0489 9.96135 12.0208 9.9703 11.9976 9.98725C11.9743 10.0042 11.957 10.0282 11.9484 10.0558L10.0574 14.5893C10.0471 14.6138 10.043 14.6405 10.0455 14.667C10.048 14.6935 10.0569 14.719 10.0716 14.7411C10.0862 14.7633 10.106 14.7815 10.1293 14.7941C10.1526 14.8066 10.1787 14.8132 10.2051 14.8132H12.2837C12.3467 14.8132 12.4083 14.8319 12.4608 14.8669C12.5132 14.9019 12.5543 14.9517 12.5789 15.01L13.489 17.0481C13.5131 17.1053 13.5227 17.1676 13.5171 17.2295C13.5115 17.2914 13.4907 17.3509 13.4566 17.4027C13.4225 17.4545 13.3763 17.497 13.3219 17.5264C13.2675 17.5559 13.2068 17.5713 13.145 17.5713H5.5778C5.52088 17.571 5.46493 17.5564 5.41494 17.5291C5.36495 17.5017 5.32246 17.4623 5.29127 17.4144C5.26008 17.3665 5.24116 17.3115 5.23618 17.2545C5.23121 17.1974 5.24034 17.14 5.26277 17.0873L10.0761 5.55177C10.1253 5.42968 10.2099 5.32535 10.3189 5.25241C10.4279 5.17947 10.5563 5.14129 10.6872 5.14288H13.4634C13.5943 5.14113 13.7227 5.17924 13.8318 5.2522C13.9409 5.32517 14.0255 5.42959 14.0745 5.55177L18.9212 17.0873C18.9436 17.1399 18.9528 17.1972 18.9479 17.2542C18.943 17.3112 18.9241 17.3661 18.8931 17.414C18.862 17.4619 18.8196 17.5013 18.7698 17.5287C18.7199 17.5562 18.6641 17.5708 18.6072 17.5713Z" fill="#EB1000"/>
</svg>
