<svg width="24" height="24" viewBox="0 0 24 24" fill="none" xmlns="http://www.w3.org/2000/svg">
<path d="M19.6732 0H4.32675C1.93715 0 0 1.93715 0 4.32675V19.6732C0 22.0628 1.93715 24 4.32675 24H19.6732C22.0628 24 24 22.0628 24 19.6732V4.32675C24 1.93715 22.0628 0 19.6732 0Z" fill="#330000"/>
<path d="M7.83623 6.41462H11.3555L15.3026 17.4332H12.0793L11.5365 15.7558H7.40872L6.86597 17.4332H3.77417L7.83623 6.41462ZM10.6815 13.1409L9.48098 9.44066L8.28046 13.1409H10.6815Z" fill="#FF9A00"/>
<path d="M15.9002 7.13825C15.9002 6.34886 16.5088 5.83899 17.4298 5.83899C18.3343 5.83899 18.9098 6.36525 18.9098 7.13825C18.9098 7.92764 18.3343 8.47028 17.4298 8.47028C16.4758 8.47028 15.9002 7.94402 15.9002 7.13825ZM15.9825 8.84854H18.8605V17.4332H15.9825V8.84854Z" fill="#FF9A00"/>
</svg>
