<svg width="24" height="24" viewBox="0 0 24 24" fill="none" xmlns="http://www.w3.org/2000/svg">
<path d="M19.6732 0H4.32675C1.93715 0 0 1.93715 0 4.32675V19.6732C0 22.0628 1.93715 24 4.32675 24H19.6732C22.0628 24 24 22.0628 24 19.6732V4.32675C24 1.93715 22.0628 0 19.6732 0Z" fill="#00005B"/>
<path d="M8.99338 6.64941C12.1182 6.64941 13.8777 8.11306 13.8777 10.5635C13.8777 13.425 11.4932 14.5762 9.25662 14.5762H7.7436V17.668H4.68457V6.64941H8.99338ZM7.7436 9.26432V11.9614H9.09212C10.0294 11.9614 10.6872 11.5831 10.6872 10.6292C10.6872 9.7576 10.1281 9.26433 9.15766 9.26433L7.7436 9.26432Z" fill="#9999FF"/>
<path d="M18.2792 8.93533C18.9534 8.93533 19.4962 9.01758 19.7429 9.09983V11.3364C19.5457 11.2871 19.1672 11.2542 18.8547 11.2542C18.2462 11.2542 17.9009 11.3035 17.5887 11.4186V17.668H14.7106V9.65897C15.7466 9.19847 16.7827 8.93533 18.2792 8.93533Z" fill="#9999FF"/>
</svg>
