<svg width="25" height="25" viewBox="0 0 25 25" fill="none" xmlns="http://www.w3.org/2000/svg">
<path d="M19.7691 0.0804682L4.42703 0.0177081C2.03627 0.00792819 0.0902481 1.93809 0.0804682 4.32885L0.0177081 19.6709C0.00792819 22.0617 1.93809 24.0077 4.32885 24.0175L19.6709 24.0803C22.0617 24.09 24.0077 22.1599 24.0175 19.7691L24.0803 4.42703C24.09 2.03627 22.1599 0.0902481 19.7691 0.0804682Z" fill="#001E36"/>
<path d="M8.40066 6.44743C11.5251 6.46021 13.2791 7.92962 13.269 10.3829C13.2573 13.2451 10.866 14.3865 8.63044 14.3773L7.11934 14.3711L7.10669 17.4644L4.04894 17.4519L4.09403 6.42981L8.4051 6.44744L8.40066 6.44743ZM7.14109 9.05563L7.13005 11.7534L8.47671 11.7589C9.41448 11.7627 10.0738 11.3876 10.0777 10.4321C10.0813 9.56099 9.52329 9.06537 8.55441 9.06141L7.14109 9.05563Z" fill="#31A8FF"/>
<path d="M13.9978 16.9459L14.026 14.3949C14.8947 14.9762 16.111 15.3412 16.951 15.3446C17.5244 15.347 17.7917 15.1836 17.7929 14.8858C17.7943 14.557 17.4348 14.4222 16.7423 14.206C15.4106 13.805 13.9507 13.2568 13.9578 11.5146C13.9649 9.77237 15.4313 8.75614 17.5557 8.76483C18.5602 8.76894 19.3818 8.91896 20.1049 9.23748L20.0772 11.6729C19.5053 11.3239 18.3688 11.0082 17.631 11.0052C17.0888 11.0029 16.8748 11.1665 16.8738 11.4154C16.8725 11.7132 17.1344 11.7942 17.9245 12.0464C19.4515 12.5148 20.7339 13.0134 20.7266 14.8045C20.7193 16.5956 19.3149 17.661 17.1283 17.652C15.9772 17.6473 14.8935 17.4473 14.0067 16.9504L13.9978 16.9459Z" fill="#31A8FF"/>
</svg>
