<svg width="24" height="24" viewBox="0 0 24 24" fill="none" xmlns="http://www.w3.org/2000/svg">
<path d="M19.6732 0H4.32675C1.93715 0 0 1.93715 0 4.32675V19.6732C0 22.0628 1.93715 24 4.32675 24H19.6732C22.0628 24 24 22.0628 24 19.6732V4.32675C24 1.93715 22.0628 0 19.6732 0Z" fill="#EB1000"/>
<path d="M13.837 9.26598H8.85395V11.157H13.2611V13.7721H8.85395V17.6696H5.79492V6.65096H13.837V9.26598Z" fill="white"/>
<path d="M17.9967 17.6688H15.1187V9.08412H17.9967V17.6688Z" fill="white"/>
<path d="M17.3974 4.45869C17.7014 4.17887 18.1848 4.45767 18.094 4.8593L17.8631 5.88143C17.8328 6.01665 17.8708 6.15694 17.9642 6.2586L18.6764 7.02857C18.9569 7.33194 18.6772 7.81414 18.2745 7.72345L17.2498 7.49341C17.1142 7.46318 16.9737 7.50091 16.8717 7.59411L16.0996 8.30417C15.7955 8.58396 15.3121 8.30519 15.403 7.90357L15.6339 6.88143C15.6642 6.74618 15.6262 6.60592 15.5328 6.50426L14.8205 5.7343C14.5402 5.43095 14.8199 4.94885 15.2224 5.03942L16.2472 5.26945C16.3828 5.2997 16.5237 5.26204 16.6257 5.16876L17.3974 4.45869Z" fill="white"/>
</svg>
