<svg width="42" height="41" viewBox="0 0 42 41" fill="none" xmlns="http://www.w3.org/2000/svg">
<rect x="0.5" y="0.5" width="41" height="39.5714" rx="6.5" stroke="black" stroke-opacity="0.1"/>
<path d="M33.9187 1H8.08131C4.17041 1 1 4.17041 1 8.08131V32.4901C1 36.401 4.17041 39.5714 8.08131 39.5714H33.9187C37.8296 39.5714 41 36.401 41 32.4901V8.08131C41 4.17041 37.8296 1 33.9187 1Z" fill="#EB1000"/>
<path d="M32.0119 30.2855H27.3534C27.151 30.2892 26.9521 30.2323 26.7819 30.1219C26.6118 30.0115 26.4781 29.8527 26.3979 29.6657L21.3406 17.7653C21.3274 17.719 21.2997 17.6782 21.2617 17.6489C21.2236 17.6197 21.1772 17.6035 21.1293 17.6029C21.0814 17.6023 21.0346 17.6172 20.9958 17.6455C20.957 17.6737 20.9282 17.7138 20.9138 17.7597L17.7621 25.3155C17.745 25.3564 17.7382 25.4009 17.7423 25.4451C17.7465 25.4892 17.7614 25.5317 17.7858 25.5686C17.8101 25.6056 17.8432 25.6359 17.882 25.6568C17.9209 25.6778 17.9643 25.6888 18.0083 25.6888H21.4727C21.5776 25.6888 21.6803 25.7199 21.7678 25.7782C21.8552 25.8365 21.9237 25.9195 21.9647 26.0167L23.4814 29.4136C23.5216 29.5089 23.5377 29.6128 23.5283 29.7159C23.5189 29.819 23.4843 29.9181 23.4275 30.0045C23.3707 30.0908 23.2936 30.1617 23.203 30.2107C23.1124 30.2598 23.0111 30.2855 22.9082 30.2855H10.2962C10.2013 30.285 10.1081 30.2608 10.0247 30.2152C9.94142 30.1695 9.87061 30.1039 9.81862 30.024C9.76664 29.9441 9.7351 29.8526 9.72681 29.7575C9.71852 29.6624 9.73374 29.5667 9.77111 29.4789L17.7933 10.253C17.8753 10.0495 18.0164 9.87563 18.1981 9.75406C18.3798 9.63248 18.5936 9.56886 18.8118 9.57151H23.4388C23.6571 9.5686 23.8711 9.63211 24.0528 9.75372C24.2346 9.87532 24.3756 10.0494 24.4574 10.253L32.5352 29.4789C32.5725 29.5665 32.5878 29.6621 32.5796 29.7571C32.5714 29.852 32.54 29.9435 32.4883 30.0233C32.4365 30.1031 32.3659 30.1689 32.2828 30.2146C32.1997 30.2603 32.1066 30.2847 32.0119 30.2855Z" fill="white"/>
</svg>
