<svg width="18" height="18" viewBox="0 0 18 18" fill="none" xmlns="http://www.w3.org/2000/svg">
<path d="M5 3H3.4C3.17909 3 3 3.17909 3 3.4V5C3 5.22091 3.17909 5.4 3.4 5.4H5C5.22091 5.4 5.4 5.22091 5.4 5V3.4C5.4 3.17909 5.22091 3 5 3Z" fill="white"/>
<path d="M9.8 3H8.2C7.97909 3 7.8 3.17909 7.8 3.4V5C7.8 5.22091 7.97909 5.4 8.2 5.4H9.8C10.0209 5.4 10.2 5.22091 10.2 5V3.4C10.2 3.17909 10.0209 3 9.8 3Z" fill="white"/>
<path d="M14.6 3H13C12.7791 3 12.6 3.17909 12.6 3.4V5C12.6 5.22091 12.7791 5.4 13 5.4H14.6C14.8209 5.4 15 5.22091 15 5V3.4C15 3.17909 14.8209 3 14.6 3Z" fill="white"/>
<path d="M5 7.8H3.4C3.17909 7.8 3 7.97909 3 8.2V9.8C3 10.0209 3.17909 10.2 3.4 10.2H5C5.22091 10.2 5.4 10.0209 5.4 9.8V8.2C5.4 7.97909 5.22091 7.8 5 7.8Z" fill="white"/>
<path d="M9.8 7.8H8.2C7.97909 7.8 7.8 7.97909 7.8 8.2V9.8C7.8 10.0209 7.97909 10.2 8.2 10.2H9.8C10.0209 10.2 10.2 10.0209 10.2 9.8V8.2C10.2 7.97909 10.0209 7.8 9.8 7.8Z" fill="white"/>
<path d="M14.6 7.8H13C12.7791 7.8 12.6 7.97909 12.6 8.2V9.8C12.6 10.0209 12.7791 10.2 13 10.2H14.6C14.8209 10.2 15 10.0209 15 9.8V8.2C15 7.97909 14.8209 7.8 14.6 7.8Z" fill="white"/>
<path d="M5 12.6H3.4C3.17909 12.6 3 12.7791 3 13V14.6C3 14.8209 3.17909 15 3.4 15H5C5.22091 15 5.4 14.8209 5.4 14.6V13C5.4 12.7791 5.22091 12.6 5 12.6Z" fill="white"/>
<path d="M9.8 12.6H8.2C7.97909 12.6 7.8 12.7791 7.8 13V14.6C7.8 14.8209 7.97909 15 8.2 15H9.8C10.0209 15 10.2 14.8209 10.2 14.6V13C10.2 12.7791 10.0209 12.6 9.8 12.6Z" fill="white"/>
<path d="M14.6 12.6H13C12.7791 12.6 12.6 12.7791 12.6 13V14.6C12.6 14.8209 12.7791 15 13 15H14.6C14.8209 15 15 14.8209 15 14.6V13C15 12.7791 14.8209 12.6 14.6 12.6Z" fill="white"/>
</svg>
