<svg width="801" height="61" viewBox="0 0 801 61" fill="none" xmlns="http://www.w3.org/2000/svg">
<path d="M207.513 29.9391H221.265C220.534 25.3302 217.461 23.4567 214.295 23.4567C211.129 23.4567 208.543 25.4051 207.494 29.9391M193.349 34.6417C193.349 21.1335 202.829 12.8712 214.145 12.8712C224.749 12.8712 234.454 19.6721 234.454 33.3489C234.454 35.2037 234.379 36.9836 234.136 38.7635H207.681C209.218 43.541 213.433 45.808 218.698 45.808C222.988 45.808 226.96 44.7588 231.4 42.8103V53.5644C227.279 55.6628 222.333 56.5621 217.237 56.5621C203.803 56.5621 193.368 48.4684 193.368 34.6229M163.56 24.918V44.4965C164.44 44.815 165.508 44.9836 166.707 44.9836C171.485 44.9836 176.019 41.5925 176.019 34.3044C176.019 27.5035 171.653 24.2623 166.951 24.2623C165.658 24.2623 164.609 24.5059 163.56 24.8993M166.314 56.6557C160.806 56.6557 153.855 55.5316 149.489 53.5082V0H163.578V13.3583C165.358 13.0398 167.138 12.7963 168.843 12.7963C179.934 12.7963 190.126 20.0843 190.126 34.1546C190.126 49.0492 179.204 56.6557 166.333 56.6557M124.309 44.8337C128.431 44.8337 132.084 41.5925 132.084 34.7166C132.084 27.8407 128.45 24.5995 124.309 24.5995C120.169 24.5995 116.628 27.8407 116.628 34.7166C116.628 41.5925 120.187 44.8337 124.309 44.8337ZM124.309 56.5808C112.487 56.5808 102.614 48.6557 102.614 34.7354C102.614 20.815 112.487 12.8899 124.309 12.8899C136.131 12.8899 146.08 20.815 146.08 34.7354C146.08 48.6557 136.131 56.5808 124.309 56.5808ZM81.8173 45.0023C83.0351 45.0023 84.1592 44.8337 85.1335 44.5152V24.8431C84.1592 24.4309 83.0351 24.1874 81.7424 24.1874C77.0398 24.1874 72.7494 27.6721 72.7494 34.8665C72.7494 42.0609 77.1147 44.9836 81.8173 44.9836M82.1546 56.6557C69.452 56.6557 58.6792 49.4426 58.6792 35.1288C58.6792 20.815 69.1148 12.8712 79.9625 12.8712C81.6674 12.8712 83.3724 13.0398 85.1522 13.4333V0H99.2412V53.4145C96 54.8759 89.1241 56.6557 82.1546 56.6557ZM0 55.8501L22.7447 1.61124H38.6885L61.2646 55.8314H44.3466L30.1077 19.822L20.7213 43.4473H31.8876L36.3466 55.8314H0V55.8501Z" fill="#E81E25"/>
<path d="M273.236 11.7847H271.644V27.5411H255.906V29.1149H271.644V44.8713H273.236V29.1149H288.974V27.5411H273.236V11.7847Z" fill="white"/>
<path d="M377.558 0.724232C393.969 0.724239 407.395 14.2669 407.395 30.4463C407.395 46.6256 394.478 59.744 378.314 60.1612H335.659L361.447 46.4404H310.443L356.771 21.812H331.276L362.391 5.28512C367.972 2.37854 372.974 0.716309 377.558 0.716309V0.724232Z" fill="#C190FF"/>
<path d="M450.814 4.58434C462.589 4.58435 472.642 11.0466 474.078 22.1042H462.805C462.087 16.36 457.132 13.7033 450.67 13.7033C442.341 13.7033 437.53 16.001 437.53 19.8066C437.53 29.7872 474.868 18.5141 474.868 40.6294C474.868 53.8411 462.661 57.1441 450.957 57.1441C436.238 57.1441 425.898 49.9638 425.611 37.9009H436.669C436.884 44.435 442.556 48.0251 450.957 48.0251C458.64 48.0251 464.097 45.9428 464.097 40.6294C464.097 31.3668 426.76 41.4192 426.76 20.2374C426.76 9.39513 437.961 4.58434 450.814 4.58434Z" fill="#C190FF"/>
<path d="M655.165 34.3825C655.165 43.3579 661.125 47.6661 668.807 47.6661C676.49 47.6661 682.45 43.3579 682.45 34.3825V5.73319H692.861V34.3825C692.861 48.5995 683.024 57.1441 668.807 57.1441C654.59 57.1441 644.753 48.5995 644.753 34.3825V5.73319H655.165V34.3825Z" fill="#C190FF"/>
<path d="M722.301 4.58434C734.076 4.58435 744.129 11.0466 745.565 22.1042H734.292C733.574 16.36 728.619 13.7033 722.157 13.7033C713.828 13.7033 709.017 16.001 709.017 19.8066C709.017 29.7872 746.355 18.5141 746.355 40.6294C746.355 53.8411 734.148 57.1441 722.444 57.1441C707.725 57.1441 697.385 49.9638 697.098 37.9009H708.155C708.371 44.435 714.043 48.0251 722.444 48.0251C730.127 48.0251 735.584 45.9428 735.584 40.6294C735.584 31.3668 698.247 41.4192 698.247 20.2374C698.247 9.39513 709.448 4.58434 722.301 4.58434Z" fill="#C190FF"/>
<path d="M522.832 14.924H489.946V25.9098H518.739V35.1006H489.946V46.8045H523.191V55.9952H479.535V5.73319H522.832V14.924Z" fill="#C190FF"/>
<path d="M558.446 43.4297L572.448 5.73319H587.814V55.9952H577.618V20.74L564.406 55.9952H552.487L539.275 20.8118V55.9952H529.079V5.73319H544.445L558.446 43.4297Z" fill="#C190FF"/>
<path fill-rule="evenodd" clip-rule="evenodd" d="M621.058 5.73319C631.183 5.73319 640.014 9.03613 640.014 19.5193C640.014 25.9098 636.999 28.7819 632.403 30.0744H638.722V55.9952H628.311V37.6137H605.405V55.9952H594.994V5.73319H621.058ZM605.405 28.4229H621.058C626.085 28.4229 629.531 26.556 629.531 21.6734C629.531 16.7908 626.085 14.924 621.058 14.924H605.405V28.4229Z" fill="#C190FF"/>
<path d="M761.433 25.9098H789.58V5.73319H799.991V55.9952H789.58V35.1006H761.433V55.9952H751.022V5.73319H761.433V25.9098Z" fill="#C190FF"/>
</svg>
